<?xml version="1.0" encoding="UTF-8"?>
<svg version="1.1" xmlns="http://www.w3.org/2000/svg" width="1952" height="1100">
<path d="M0 0 C1 3 1 3 -0.24072266 6.00488281 C-0.87125233 7.24307695 -1.51326383 8.47546321 -2.1640625 9.703125 C-2.50758255 10.3691423 -2.8511026 11.03515961 -3.20503235 11.72135925 C-4.33460014 13.90317346 -5.47919369 16.07667545 -6.625 18.25 C-7.40996347 19.75509322 -8.19454782 21.26038422 -8.97875977 22.76586914 C-14.94079453 34.16788962 -21.17450738 45.39688344 -27.59912109 56.54492188 C-29.30210015 59.52943868 -30.94746922 62.54289639 -32.58984375 65.56103516 C-43.13248285 84.8847697 -54.85388367 103.64933186 -67 122 C-67.79964995 123.21863795 -68.5991299 124.43738747 -69.3984375 125.65625 C-85.65841441 150.34830428 -102.97205471 174.53116224 -121.80078125 197.3359375 C-123.24405042 199.08426712 -124.67925015 200.8392961 -126.10546875 202.6015625 C-136.32168051 215.21830489 -147.07268924 227.29437964 -158.21191406 239.09863281 C-160.04262297 241.04532328 -161.86262322 243.00150926 -163.6796875 244.9609375 C-179.81136227 262.3530677 -179.81136227 262.3530677 -188.58203125 269.86328125 C-191.22330358 272.19732966 -193.78517583 274.6038956 -196.34863281 277.02270508 C-202.08322451 282.4315001 -207.8528024 287.69056617 -214.01953125 292.609375 C-216.31300201 294.44896099 -218.5743461 296.31139985 -220.82421875 298.203125 C-292.09913628 357.99611577 -380.42613301 397.5500753 -636.01953125 415.9375 C-725.28230974 407.96715063 -812.86735843 386.09542487 -1058.96636963 306.81996155 C-1070.7911192 302.65640974 -1082.64825119 298.58588542 -1094.5 294.5 C-1109.29983456 289.39682343 -1124.09289427 284.27624402 -1138.86523438 279.09399414 C-1229.98520937 247.13436458 -1322.76486694 216.95297131 -1418 200 C-1418.82638977 199.85280518 -1419.65277954 199.70561035 -1420.50421143 199.55395508 C-1454.3646019 193.56550721 -1488.91400081 188.92081672 -1523.33984375 188.796875 C-1524.65321213 188.78986069 -1525.96658051 188.78284637 -1527.31974792 188.77561951 C-1531.52567038 188.75626094 -1535.73153747 188.75118672 -1539.9375 188.75 C-1540.65382347 188.74955814 -1541.37014694 188.74911629 -1542.10817719 188.74866104 C-1563.21323567 188.7418337 -1584.07079279 188.93689505 -1605 192 C-1606.20881836 192.16628906 -1607.41763672 192.33257812 -1608.66308594 192.50390625 C-1647.95119634 198.00444543 -1686.12451326 209.01872992 -1722 226 C-1722.88864746 226.41749512 -1723.77729492 226.83499023 -1724.69287109 227.26513672 C-1757.92220813 242.99680971 -1788.57441103 264.51882718 -1815.41796875 289.6015625 C-1817.50998913 291.54483106 -1819.63122372 293.4096941 -1821.8125 295.25 C-1830.56327163 302.84258127 -1838.94385919 311.28244224 -1846.4140625 320.13671875 C-1848.30191407 322.35471185 -1850.27702792 324.48242155 -1852.25 326.625 C-1857.29548053 332.22352646 -1861.89696798 338.11762852 -1866.49902344 344.07958984 C-1867.98902375 345.98595655 -1869.50906809 347.86391668 -1871.0390625 349.73828125 C-1898.41282903 383.60363616 -1920.27505738 422.20173592 -1940.25 460.75 C-1940.57055359 461.3677832 -1940.89110718 461.98556641 -1941.22137451 462.62207031 C-1944.35268011 468.66889691 -1947.450707 474.68218692 -1950 481 C-1950.33 481 -1950.66 481 -1951 481 C-1950.48965762 472.62276154 -1949.04659783 464.661872 -1947.125 456.5 C-1946.9758313 455.86427063 -1946.8266626 455.22854126 -1946.67297363 454.57354736 C-1938.90606909 421.7537754 -1927.40668162 389.93766511 -1913.12255859 359.40527344 C-1911.95999701 356.91428676 -1910.81775959 354.41454398 -1909.67578125 351.9140625 C-1903.4987773 338.52511129 -1896.4648811 325.71084765 -1889 313 C-1888.28626221 311.78352783 -1888.28626221 311.78352783 -1887.55810547 310.54248047 C-1866.47107112 274.83310472 -1840.5350611 242.34563329 -1811.23876953 213.0534668 C-1809.49611683 211.30861192 -1807.76166837 209.55586257 -1806.02734375 207.80273438 C-1799.32488204 201.0671139 -1792.45469043 194.90369895 -1785 189 C-1783.9097834 188.07708045 -1782.82516292 187.14744467 -1781.75 186.20703125 C-1738.58054779 148.6177213 -1685.76493447 121.70472106 -1632 103 C-1630.99888184 102.6498584 -1629.99776367 102.2997168 -1628.96630859 101.93896484 C-1588.71090242 88.02819732 -1546.5658464 80.02887424 -1504.32421875 75.26428223 C-1502.13703387 75.01558185 -1499.95133718 74.75639094 -1497.765625 74.49511719 C-1447.78200903 68.65136689 -1394.42742565 69.53337096 -1344.43109131 74.74676514 C-1341.89171987 75.01127901 -1339.35147572 75.26599317 -1336.81103516 75.52001953 C-1248.60122586 84.45020216 -1161.83138711 104.25313087 -1040.22265625 142.5625 C-944.59458868 174.23315396 -846.36599871 197.43742991 -688 212 C-686.83340851 212.06195053 -686.83340851 212.06195053 -685.64324951 212.12515259 C-666.9308319 213.10541494 -648.23211764 213.201852 -629.5 213.1875 C-628.71768257 213.18723312 -627.93536514 213.18696625 -627.12934113 213.18669128 C-602.36923327 213.17610765 -577.69870619 212.8875434 -553 211 C-551.72382813 210.90525391 -551.72382813 210.90525391 -550.421875 210.80859375 C-458.29745926 203.95969404 -367.99431175 185.85171359 -158 104 C-157.07707153 103.53853577 -157.07707153 103.53853577 -156.13549805 103.06774902 C-140.28568143 95.12584132 -124.84295231 86.6272396 -109.61572266 77.55175781 C-107.28829171 76.17102689 -104.9513617 74.80997517 -102.60546875 73.4609375 C-76.9635205 58.68411772 -52.45874085 42.02807632 -29 24 C-28.39462402 23.5349707 -27.78924805 23.06994141 -27.16552734 22.59082031 C-13.09145955 11.86490049 -13.09145955 11.86490049 0 0 Z " fill="#000000" transform="translate(1951,54)"/>
<path d="M0 0 C1.88196075 0.00273422 1.88196075 0.00273422 3.80194092 0.00552368 C25.92865654 0.05923355 47.81257072 0.96325136 69.8125 3.3125 C70.61828491 3.39735657 71.42406982 3.48221313 72.25427246 3.56964111 C111.95477203 7.77935237 151.01210978 14.97412383 189.8125 24.3125 C190.61582764 24.5054364 191.41915527 24.6983728 192.24682617 24.89715576 C272.51813298 44.23590611 350.37190643 72.95406367 425.8125 106.3125 C427.57303711 107.08859619 427.57303711 107.08859619 429.36914062 107.88037109 C474.33556993 127.73704198 518.66154276 149.1382461 562.14013672 172.06738281 C603.34138015 193.79046461 645.75199036 212.19894167 689.8125 227.3125 C690.55781982 227.56860046 691.30313965 227.82470093 692.07104492 228.08856201 C765.52024982 253.26156439 842.06643944 268.39638331 919.3125 275.5625 C920.13113525 275.6397229 920.94977051 275.7169458 921.79321289 275.79650879 C953.21005245 278.7143092 984.64607274 279.69690213 1016.18405914 279.63055801 C1018.92875731 279.62488897 1021.67344923 279.62208613 1024.41815186 279.61947632 C1054.30275682 279.57826149 1084.02155452 278.84923951 1113.8125 276.3125 C1114.82870422 276.22764343 1115.84490845 276.14278687 1116.89190674 276.05535889 C1200.80827694 269.01204199 1286.19809559 255.21409911 1366.29248047 228.57666016 C1366.98493866 228.34929169 1367.67739685 228.12192322 1368.39083862 227.88766479 C1370.24361352 227.27763431 1372.09266661 226.65633221 1373.94140625 226.03417969 C1376.8125 225.3125 1376.8125 225.3125 1379.8125 226.3125 C1369.50004765 240.91420244 1358.7739317 255.19254577 1347.8125 269.3125 C1347.37583008 269.87678711 1346.93916016 270.44107422 1346.48925781 271.02246094 C1340.63955032 278.57359523 1334.63896723 285.96123781 1328.43359375 293.22265625 C1325.98946666 296.08827694 1323.61554266 299.00655522 1321.25 301.9375 C1317.37086545 306.70488003 1313.29303793 311.25452987 1309.1328125 315.77734375 C1307.23968797 317.84575758 1305.38998296 319.93655876 1303.5625 322.0625 C1293.51224622 333.59392544 1282.78017495 344.50953201 1271.95117188 355.30419922 C1269.91417579 357.335762 1267.88268049 359.37271836 1265.8515625 361.41015625 C1264.52896683 362.73209207 1263.20606151 364.05371817 1261.8828125 365.375 C1261.28993439 365.96990234 1260.69705627 366.56480469 1260.08621216 367.17773438 C1256.37171669 370.87186165 1252.5318105 374.37387863 1248.56608582 377.79702759 C1246.34036418 379.72052612 1244.17108935 381.70272129 1242 383.6875 C1236.75069023 388.41826093 1231.31626055 392.88247052 1225.8125 397.3125 C1224.67936303 398.23788408 1223.54656551 399.16368393 1222.4140625 400.08984375 C1181.74309287 433.19424952 1136.18561372 460.47966278 1086.8125 478.3125 C1085.76868164 478.68987305 1084.72486328 479.06724609 1083.64941406 479.45605469 C988.94368407 513.2473475 887.08356812 504.16631239 731.8125 450.3125 C731.19042664 450.04971252 730.56835327 449.78692505 729.9274292 449.51617432 C692.10678449 433.51693933 655.0204318 415.67921409 618.8125 396.3125 C617.83345703 395.79075195 616.85441406 395.26900391 615.84570312 394.73144531 C603.33408696 388.0598666 590.88863163 381.28939631 578.56518555 374.27587891 C572.33801846 370.73260534 566.08515473 367.2399047 559.81396484 363.77514648 C548.06370218 357.28272179 536.41646275 350.6404442 524.83984375 343.84375 C518.51726871 340.13202044 512.16653349 336.47004023 505.8125 332.8125 C496.4736961 327.43365948 487.15609489 322.0199044 477.8515625 316.58203125 C469.42795492 311.66273286 460.97948497 306.78726792 452.52563477 301.92016602 C446.24390233 298.30093938 439.97678517 294.6582296 433.72241211 290.99194336 C422.54275931 284.44025361 411.28108494 278.05162221 399.9609375 271.74609375 C395.02617356 268.99637068 390.11075309 266.21429466 385.20117188 263.41992188 C373.09785368 256.53600282 360.86442358 249.9135128 348.58496094 243.35009766 C345.74369835 241.82279582 342.91761598 240.26948114 340.09472656 238.70849609 C325.1432959 230.45633759 309.96513192 222.68926577 294.6875 215.0625 C294.05544521 214.74651855 293.42339043 214.43053711 292.77218246 214.10498047 C272.34141177 203.89150838 251.80090798 194.05770015 230.76550293 185.14349365 C228.80181698 184.30795443 226.84222899 183.46347919 224.88378906 182.61572266 C148.2213286 149.43330305 67.60188843 126.36836418 -200.4453125 154.09375 C-266.70365812 180.57728411 -327.19011998 220.35561061 -379.93359375 268.2734375 C-381.9563269 270.10336247 -384.00119435 271.90131728 -386.0625 273.6875 C-388.51256033 275.81122033 -390.9123471 277.97808807 -393.28125 280.19140625 C-393.82281738 280.69559082 -394.36438477 281.19977539 -394.92236328 281.71923828 C-396.0028525 282.72767344 -397.07946398 283.74028197 -398.15185547 284.75732422 C-401.96586099 288.3125 -401.96586099 288.3125 -404.1875 288.3125 C-392.50235633 236.9994778 -366.94094633 188.29545546 -334.1875 147.3125 C-333.42824219 146.35988281 -332.66898437 145.40726563 -331.88671875 144.42578125 C-327.55316578 139.05936073 -323.06949664 133.86198252 -318.421875 128.765625 C-316.96151249 127.16228993 -315.5129964 125.54806259 -314.078125 123.921875 C-309.73593222 119.00917514 -305.24900687 114.27104503 -300.625 109.625 C-300.10711914 109.10252686 -299.58923828 108.58005371 -299.05566406 108.04174805 C-267.34261866 76.45281444 -227.45676482 51.30021519 -186.1875 34.3125 C-185.15657227 33.88759277 -184.12564453 33.46268555 -183.06347656 33.02490234 C-124.88783754 9.36817117 -62.61249921 -0.19104815 0 0 Z " fill="#000000" transform="translate(455.1875,292.6875)"/>
<path d="M0 0 C2.7065612 1.56776281 5.43230146 3.09632632 8.16601562 4.61621094 C33.7150666 18.83147238 58.58863851 34.37504484 82.85302734 50.68554688 C133.00076195 84.27979176 185.90000081 114.00183894 239.58789062 141.49902344 C241.24183838 142.35149658 241.24183838 142.35149658 242.92919922 143.22119141 C262.139975 153.10432206 281.71808833 161.97418331 301.51947021 170.5960083 C303.44487017 171.43658466 305.36783204 172.28239482 307.28955078 173.13134766 C383.83066723 206.92407145 464.79788672 231.74804014 821.14257812 214.63183594 C861.83773373 198.53284031 900.1544412 176.86828861 933.58789062 148.49902344 C934.68132072 147.59108595 935.77509131 146.68355843 936.86914062 145.77636719 C945.59621665 138.47966002 953.65600772 130.64788794 961.58789062 122.49902344 C961.58789062 125.98262658 961.11016634 126.44336383 958.94726562 129.01855469 C958.09201294 130.04710571 958.09201294 130.04710571 957.21948242 131.09643555 C956.59855713 131.82741455 955.97763184 132.55839355 955.33789062 133.31152344 C954.70471924 134.06763916 954.07154785 134.82375488 953.41918945 135.6027832 C951.48365527 137.90862716 949.53732398 140.20492506 947.58789062 142.49902344 C947.02827637 143.16063477 946.46866211 143.82224609 945.89208984 144.50390625 C940.22736603 151.19715595 934.4747113 157.79950476 928.58007812 164.29199219 C926.82595681 166.23528345 925.10816369 168.20261792 923.40039062 170.18652344 C913.3154918 181.72824851 902.57751358 192.67417703 891.7265625 203.49072266 C889.68956641 205.52228544 887.65807112 207.5592418 885.62695312 209.59667969 C884.30435746 210.91861551 882.98145213 212.24024161 881.65820312 213.56152344 C881.06532501 214.15642578 880.4724469 214.75132812 879.86160278 215.36425781 C876.15415316 219.05137788 872.32210138 222.54674508 868.36283875 225.96218872 C865.95307118 228.04868038 863.61663295 230.21119616 861.27539062 232.37402344 C856.84292588 236.41181666 852.31046886 240.27209778 847.64257812 244.03417969 C845.40477483 245.83987519 843.18307163 247.65881656 840.97070312 249.49511719 C819.33711836 267.38825215 795.97146891 283.57575984 771.58789062 297.49902344 C770.93288574 297.87655762 770.27788086 298.2540918 769.60302734 298.64306641 C721.49605075 326.27946933 669.5466558 344.76130916 614.58789062 352.49902344 C613.44288086 352.66273438 612.29787109 352.82644531 611.11816406 352.99511719 C574.83991512 357.9287144 536.85666618 357.24578061 500.58789062 352.49902344 C499.29963379 352.33273437 498.01137695 352.16644531 496.68408203 351.99511719 C452.45683279 346.09305007 409.66062914 334.11307624 367.58789062 319.49902344 C366.93024719 319.27128235 366.27260376 319.04354126 365.59503174 318.80889893 C319.08721598 302.67740276 274.5679786 281.60961287 230.58001709 259.64967728 C229.22280246 258.9721661 227.86542429 258.2949824 226.50787354 257.61814499 C210.49135241 249.63260659 194.61511212 241.45373334 178.94894409 232.79504395 C175.40157875 230.84783762 171.82806205 228.95176832 168.24804688 227.06542969 C167.61620987 226.73221207 166.98437286 226.39899445 166.33338928 226.05567932 C165.07861939 225.39432973 163.82371189 224.73324114 162.56866455 224.07241821 C151.60355912 218.29401105 140.72778002 212.39441254 129.96704102 206.24145508 C122.90135715 202.21083073 115.76114933 198.33453386 108.58789062 194.49902344 C99.36175026 189.564333 90.22193914 184.5020228 81.13085938 179.32324219 C73.33417413 174.89257416 65.45926747 170.61841507 57.5612793 166.37158203 C50.74352582 162.69534782 43.99880952 158.90705355 37.27539062 155.06152344 C25.57639531 148.38751167 13.62966974 142.22413418 1.6484375 136.07568359 C-2.5531964 133.91118521 -6.73412383 131.70871967 -10.91210938 129.49902344 C-13.22380214 128.28098354 -15.53611219 127.06412364 -17.84863281 125.84765625 C-19.67000203 124.88944258 -21.49091869 123.93036848 -23.31152344 122.97070312 C-101.24506394 81.95949347 -184.29579197 44.94285463 -279.41210938 30.49902344 C-280.56453125 30.3338623 -281.71695312 30.16870117 -282.90429688 29.99853516 C-315.78529566 25.49230984 -350.61750062 25.33074638 -383.41210938 30.49902344 C-384.52457031 30.67062988 -385.63703125 30.84223633 -386.78320312 31.01904297 C-453.07076824 41.5434166 -513.3632275 72.47624056 -564.41210938 115.49902344 C-564.93450195 115.93649902 -565.45689453 116.37397461 -565.99511719 116.82470703 C-579.57760101 128.21736183 -592.3606327 140.36277586 -604.91210938 152.87402344 C-605.84410156 153.80134277 -606.77609375 154.72866211 -607.73632812 155.68408203 C-612.83679187 160.79650573 -617.71580946 166.01530116 -622.41210938 171.49902344 C-623.86656455 173.10670716 -625.32431832 174.71142058 -626.78710938 176.31152344 C-630.60808076 180.54991186 -634.25458269 184.89781447 -637.84179688 189.33496094 C-639.76391398 191.71187154 -641.71176206 194.06578287 -643.66992188 196.41308594 C-652.8739859 207.46257633 -661.60459432 218.77715784 -669.97851562 230.46777344 C-670.57204834 231.29543213 -671.16558105 232.12309082 -671.77709961 232.97583008 C-672.93089325 234.58896451 -674.08031064 236.20524006 -675.22485352 237.82495117 C-675.74297607 238.55141846 -676.26109863 239.27788574 -676.79492188 240.02636719 C-677.48158936 240.9969104 -677.48158936 240.9969104 -678.18212891 241.98706055 C-679.41210938 243.49902344 -679.41210938 243.49902344 -681.41210938 244.49902344 C-680.78244341 236.87624905 -678.68844879 229.75188708 -676.53710938 222.43652344 C-676.3399231 221.76218262 -676.14273682 221.0878418 -675.9395752 220.39306641 C-662.92482919 176.0749638 -644.823327 133.33196005 -621.41210938 93.49902344 C-620.8976123 92.61601563 -620.38311523 91.73300781 -619.85302734 90.82324219 C-613.17145549 79.37275409 -606.13937584 68.27181614 -598.41210938 57.49902344 C-597.86796387 56.73702637 -597.32381836 55.9750293 -596.76318359 55.18994141 C-589.11270524 44.51641205 -581.12403941 34.32283644 -572.41210938 24.49902344 C-571.2241676 23.1244051 -570.03659667 21.74946606 -568.84960938 20.37402344 C-557.73493432 7.75953681 -546.29499948 -4.66223507 -533.41210938 -15.50097656 C-532.5071875 -16.29503906 -531.60226562 -17.08910156 -530.66992188 -17.90722656 C-457.26937788 -81.93898711 -359.55406621 -105.13196853 0 0 Z " fill="#000000" transform="translate(800.412109375,570.5009765625)"/>
<path d="" fill="#000000" transform="translate(0,0)"/>
<path d="" fill="#000000" transform="translate(0,0)"/>
<path d="" fill="#000000" transform="translate(0,0)"/>
</svg>
